<svg xmlns="http://www.w3.org/2000/svg" width="21.025" height="21.025" viewBox="0 0 21.025 21.025">
  <g id="Group_616" data-name="Group 616" transform="translate(-39.818 -340.39)">
    <g id="refresh" transform="translate(39.818 340.39)">
      <path id="Path_1741" data-name="Path 1741" d="M2.525,11.482a8.318,8.318,0,0,1-.061-.969A8.015,8.015,0,0,1,15.912,4.587l-.71.723a.63.63,0,0,0-.16.616.645.645,0,0,0,.468.419c.124.025,4.2,1.337,3.938,1.285a.623.623,0,0,0,.727-.727c-.025-.124-.927-4.649-.875-4.39a.61.61,0,0,0-1.035-.308l-.6.591A10.519,10.519,0,0,0,0,10.512v.025c0,.347.016.616.034.821a.616.616,0,0,0,.493.549l1.265.253A.616.616,0,0,0,2.525,11.482Zm0,0"/>
      <path id="Path_1742" data-name="Path 1742" d="M40.106,215.693l-1.269-.259a.616.616,0,0,0-.735.678,8.387,8.387,0,0,1,.064.975A8.005,8.005,0,0,1,24.718,223l.71-.71a.63.63,0,0,0,.16-.616.644.644,0,0,0-.468-.419c-.124-.025-4.2-1.337-3.938-1.285a.6.6,0,0,0-.554.172.613.613,0,0,0-.173.554l.875,4.349a.617.617,0,0,0,.431.468.592.592,0,0,0,.6-.16l.591-.591a10.5,10.5,0,0,0,17.674-7.675v-.037c0-.273-.01-.541-.033-.807A.616.616,0,0,0,40.106,215.693Zm0,0" transform="translate(-19.605 -206.576)"/>
    </g>
  </g>
</svg>
