<svg id="Grupo_3460" data-name="Grupo 3460" xmlns="http://www.w3.org/2000/svg" width="47.704" height="42.972" viewBox="0 0 47.704 42.972">
  <path id="Trazado_1677" data-name="Trazado 1677" d="M190.755,514.938l.775.8c.975-.569,1.062-.551,1.86.257,1.418,1.435,2.85,2.857,4.261,4.3a3.185,3.185,0,0,1-2.5,5.4,3.018,3.018,0,0,1-1.973-.919q-2.3-2.309-4.581-4.638c-.472-.482-.439-.762.146-1.524-.269-.291-.529-.607-.832-.877a.582.582,0,0,0-.449-.027c-.961.253-1.919.515-2.872.8a1.145,1.145,0,0,0-.429.313c-.043.043-.009.166-.009.252,0,1.118,0,2.236,0,3.42h.6c.9,0,1.793-.009,2.69,0a.822.822,0,0,1,.872.824.8.8,0,0,1-.884.749q-3.569.012-7.139.008l-28.14,0c-.138,0-.276,0-.414,0-.553-.022-.885-.331-.87-.808a.79.79,0,0,1,.862-.769c.879-.011,1.759,0,2.638,0H155v-.69q0-10.583,0-21.165c0-1.1.168-1.269,1.247-1.27h1.772c0-.9,0-1.753,0-2.607,0-.947.236-1.182,1.2-1.178.5,0,.993,0,1.565,0,0-.526,0-1,0-1.48.008-.593.3-.958.775-.968.494-.01.8.36.814.985.008.431.01.862.018,1.293a.8.8,0,0,0,.073.172c.526,0,1.088,0,1.65,0,.839,0,1.087.245,1.09,1.072,0,.876,0,1.753,0,2.668h.691V498.7q0-4.347,0-8.694c0-.894.241-1.131,1.141-1.133,1.273,0,2.546,0,3.9,0v-1.632c0-1.793,0-1.793,1.817-1.793h1.46V484.33c-.3,0-.584.008-.87,0-.559-.019-.892-.317-.9-.789a.791.791,0,0,1,.881-.8q1.707-.015,3.414,0a.772.772,0,0,1,.858.818c-.01.47-.311.748-.852.771-.289.012-.579,0-.9,0v1.113c.7,0,1.4,0,2.094,0,.965,0,1.175.219,1.176,1.2,0,.72,0,1.44,0,2.226h2c.655,0,1.31,0,1.966,0,.8.007,1.057.253,1.058,1.055q.006,5.149,0,10.3c0,.84,0,.84.821.952a8.756,8.756,0,0,1,6.063,13.334C190.949,514.637,190.866,514.766,190.755,514.938Zm-23.2-24.457a.954.954,0,0,0-.056.2q-.006,4.19,0,8.38c0,.121.054.31.14.352.5.244.518.675.518,1.142q-.006,10.631,0,21.262v.656h3.491v-.576q0-3.544,0-7.087c0-1.139.154-1.292,1.274-1.3.924,0,1.848,0,2.767,0l-.778-3.086-.593-.065v-3.337a2.754,2.754,0,0,1,.495-.023c.462.065.685-.108.866-.564a7.916,7.916,0,0,1,2.467-3.327.937.937,0,0,0,.4-.873c-.03-.544-.008-1.091-.008-1.685.465,0,.858.01,1.251,0,.268-.009.375.1.362.364s0,.563,0,.848l2.368-.652V490.481Zm-10.914,10.5v21.483h2.4v-.586c0-1.517,0-3.035,0-4.552,0-.728.266-.993,1-1q1.551-.014,3.1-.006c.8,0,1.058.263,1.061,1.054,0,1.5,0,3,0,4.5,0,.2.017.4.026.595h2.3V500.978Zm34.168,8.824a7.122,7.122,0,1,0-7.116,7.187A7.169,7.169,0,0,0,190.809,509.8ZM176.79,522.47v-7.316h-3.524v7.316Zm5.744-3.994a9.349,9.349,0,0,1-4.087-1.638v5.612h4.087Zm13.308,2.315-3.423-3.363-2.166,2.121,3.53,3.42Zm-32.26-21.432v-2.149h-3.963c0,.651-.01,1.266.011,1.88,0,.092.147.256.227.257C161.091,499.365,162.325,499.36,163.582,499.36Zm-2.921,18.594v4.512h1.906v-4.512Zm16.819-30.9c-1.589,0-3.149,0-4.708.011-.081,0-.224.163-.229.255-.023.493-.011.987-.011,1.508h4.947Zm17.512,36.965a1.491,1.491,0,0,0,1.627-.523,1.422,1.422,0,0,0,.232-1.454Zm-4.5-7.085-.808-.769-.566.5.791.829Z" transform="translate(-150.866 -482.73)" fill="#fff"/>
  <path id="Trazado_1678" data-name="Trazado 1678" d="M418.284,592.462a1.763,1.763,0,0,1,.223-.056c1.388-.1,1.388-.1,1.388,1.284,0,.585-.008,1.17,0,1.754,0,.26-.085.355-.355.372-1.259.08-1.258.088-1.258-1.168Z" transform="translate(-390.614 -581.024)" fill="#fff"/>
  <path id="Trazado_1679" data-name="Trazado 1679" d="M337.31,595.754c-.1.064-.116.08-.131.082-1.464.161-1.465.161-1.464-1.3,0-.568.011-1.137,0-1.706-.007-.292.106-.378.392-.391,1.208-.052,1.207-.061,1.207,1.122Z" transform="translate(-316.585 -581.074)" fill="#fff"/>
  <path id="Trazado_1680" data-name="Trazado 1680" d="M337.214,658.166h-1.6c0-.4,0-.787,0-1.174,0-.552.019-1.105-.012-1.655-.023-.412.085-.579.537-.569,1.07.022,1.07,0,1.07,1.063C337.214,656.588,337.214,657.346,337.214,658.166Z" transform="translate(-316.489 -636.966)" fill="#fff"/>
  <path id="Trazado_1681" data-name="Trazado 1681" d="M377.471,655.174h1.506v3.347h-1.506Z" transform="translate(-354.024 -637.331)" fill="#fff"/>
  <path id="Trazado_1682" data-name="Trazado 1682" d="M337.681,720.538h-1.558v-3.382c.433,0,.858-.018,1.28.013a.391.391,0,0,1,.266.273C337.689,718.455,337.681,719.469,337.681,720.538Z" transform="translate(-316.954 -692.895)" fill="#fff"/>
  <path id="Trazado_1683" data-name="Trazado 1683" d="M378.942,596.391h-1.515v-3.343h1.515Z" transform="translate(-353.985 -581.633)" fill="#fff"/>
  <path id="Trazado_1684" data-name="Trazado 1684" d="M224.739,750.226v-3h1.534v3Z" transform="translate(-217.095 -719.859)" fill="#fff"/>
  <path id="Trazado_1685" data-name="Trazado 1685" d="M226.382,694.415h-1.526v-3.023h1.526Z" transform="translate(-217.2 -669.802)" fill="#fff"/>
  <path id="Trazado_1686" data-name="Trazado 1686" d="M269.287,691.386H270.8v3.02h-1.516Z" transform="translate(-257.034 -669.796)" fill="#fff"/>
  <path id="Trazado_1687" data-name="Trazado 1687" d="M270.862,750.2h-1.491v-3.017h1.491Z" transform="translate(-257.11 -719.819)" fill="#fff"/>
  <path id="Trazado_1688" data-name="Trazado 1688" d="M419.917,720.292h-1.611c0-1.055,0-2.082,0-3.11,0-.017,0-.039,0-.051.357-.461.851-.125,1.275-.2.089-.016.314.2.316.316C419.928,718.241,419.917,719.237,419.917,720.292Z" transform="translate(-390.633 -692.654)" fill="#fff"/>
</svg>
