<svg xmlns="http://www.w3.org/2000/svg" width="46.881" height="46.896" viewBox="0 0 46.881 46.896">
  <g id="_003-mano" data-name="003-mano" transform="translate(-0.501)">
    <path id="Trazado_1833" data-name="Trazado 1833" d="M220.288,331.757a.916.916,0,1,0-1.3,0A.917.917,0,0,0,220.288,331.757Zm0,0" transform="translate(-198.236 -299.95)" fill="#fff"/>
    <path id="Trazado_1834" data-name="Trazado 1834" d="M188.449,10.072A10.072,10.072,0,1,0,198.522,0,10.084,10.084,0,0,0,188.449,10.072Zm18.314,0a8.241,8.241,0,1,1-8.241-8.241A8.251,8.251,0,0,1,206.763,10.072Zm0,0" transform="translate(-170.733)" fill="#fff"/>
    <path id="Trazado_1835" data-name="Trazado 1835" d="M11.048,239.5a.915.915,0,0,0,1.292.008l4.439-4.374a2.767,2.767,0,0,0,.652-2.842l.955-.921a2.731,2.731,0,0,1,1.907-.77H32.466a8.2,8.2,0,0,0,5.748-2.335c.064-.062-.483.582,8.3-9.921a3.663,3.663,0,0,0-5.574-4.754l-5.4,5.554a3.68,3.68,0,0,0-2.847-1.363H22.484a11.813,11.813,0,0,0-4.585-.916,11.329,11.329,0,0,0-10.326,5.855,2.735,2.735,0,0,0-2.449.759L.768,227.846a.916.916,0,0,0,0,1.292Zm6.851-20.8a10,10,0,0,1,4.031.839.914.914,0,0,0,.367.077H32.7a1.831,1.831,0,1,1,0,3.663H25.224a.916.916,0,1,0,0,1.831H32.7a3.657,3.657,0,0,0,3.63-4.141c5.227-5.373,5.964-6.128,6-6.165a1.832,1.832,0,1,1,2.8,2.366L36.9,226.982a6.376,6.376,0,0,1-4.438,1.785H20.293a4.553,4.553,0,0,0-3.179,1.284l-.778.751-7.174-7.173A9.454,9.454,0,0,1,17.9,218.694ZM6.42,224.771a.913.913,0,0,1,1.134-.129c.158.1-.3-.318,7.931,7.9a.917.917,0,0,1,.005,1.291l-3.785,3.728-9-9.066Zm0,0" transform="translate(0 -192.872)" fill="#fff"/>
    <path id="Trazado_1836" data-name="Trazado 1836" d="M267.677,40.9v1.073a2.747,2.747,0,0,0,.916,5.337.916.916,0,1,1,0,1.831,1.656,1.656,0,0,1-1.189-.693.916.916,0,1,0-1.4,1.179,3.8,3.8,0,0,0,1.675,1.192v1.069a.916.916,0,0,0,1.831,0V50.819a2.747,2.747,0,0,0-.916-5.337.916.916,0,0,1,0-1.832,1.47,1.47,0,0,1,.99.479.916.916,0,1,0,1.274-1.316,3.537,3.537,0,0,0-1.348-.843V40.9a.916.916,0,1,0-1.831,0Zm0,0" transform="translate(-240.987 -36.326)" fill="#fff"/>
  </g>
</svg>
