<svg id="Grupo_789" data-name="Grupo 789" xmlns="http://www.w3.org/2000/svg" width="50.088" height="35.062" viewBox="0 0 50.088 35.062">
  <path id="Trazado_1652" data-name="Trazado 1652" d="M51.253,38.548H33.722v-2.5h.835a2.5,2.5,0,0,0,2.5-2.5V28.531a2.5,2.5,0,0,0-2.5-2.5h-.894A16.151,16.151,0,0,0,18.438,11.01,15.861,15.861,0,0,0,2,26.861v8.348A10.865,10.865,0,0,0,12.852,46.061H32.887a.835.835,0,0,0,.835-.835v-1.67h16.7v1.67h1.67V39.383A.835.835,0,0,0,51.253,38.548Zm-16.7-4.174h-.835v-2.5h1.67v1.67A.835.835,0,0,1,34.557,34.374Zm.835-5.844V30.2h-1.67V27.7h.835A.835.835,0,0,1,35.392,28.531ZM3.67,26.861A14.191,14.191,0,0,1,17.856,12.669c.174,0,.348,0,.523.009A14.5,14.5,0,0,1,32.053,27.222V38.548H4.307a9.122,9.122,0,0,1-.638-3.339ZM30.383,44.392v-2.5h-1.67v2.5h-1.67v-2.5h-1.67v2.5H23.7v-2.5h-1.67v2.5h-1.67v-2.5H18.7v2.5h-1.67v-2.5h-1.67v2.5h-1.67v-2.5h-1.67v2.462a9.183,9.183,0,0,1-6.852-4.131H32.053v4.174Zm3.339-4.174H47.079v1.67H33.722Zm15.026,1.67v-1.67h1.67v1.67Z" transform="translate(-2 -10.999)" fill="#fff"/>
  <path id="Trazado_1653" data-name="Trazado 1653" d="M19.037,38.074A10.037,10.037,0,1,0,9,28.037,10.037,10.037,0,0,0,19.037,38.074ZM10.716,27.2a8.318,8.318,0,0,1,1.849-4.453l1.741,1.741,1.183-1.183-1.741-1.741A8.318,8.318,0,0,1,18.2,19.716v2.467h1.673V19.716a8.318,8.318,0,0,1,4.453,1.849l-1.741,1.741,1.183,1.183,1.741-1.741A8.318,8.318,0,0,1,27.359,27.2H24.892v1.673h2.467a8.318,8.318,0,0,1-1.849,4.453l-1.741-1.741-1.183,1.183,1.741,1.741a8.318,8.318,0,0,1-4.453,1.849V33.892H18.2v2.467a8.318,8.318,0,0,1-4.453-1.849l1.741-1.741-1.183-1.183-1.741,1.741a8.318,8.318,0,0,1-1.849-4.453h2.467V27.2Z" transform="translate(-3.145 -12.171)" fill="#fff"/>
  <path id="Trazado_1654" data-name="Trazado 1654" d="M20.182,33.364A4.182,4.182,0,1,0,16,29.182,4.182,4.182,0,0,0,20.182,33.364Zm0-6.691a2.509,2.509,0,1,1-2.509,2.509A2.509,2.509,0,0,1,20.182,26.673Z" transform="translate(-4.317 -13.32)" fill="#fff"/>
</svg>
