<svg xmlns="http://www.w3.org/2000/svg" xmlns:xlink="http://www.w3.org/1999/xlink" width="152.155" height="152.156" viewBox="0 0 152.155 152.156">
  <defs>
    <linearGradient id="linear-gradient" x1="0.195" y1="0.808" x2="1" gradientUnits="objectBoundingBox">
      <stop offset="0" stop-color="#7f7dea"/>
      <stop offset="1" stop-color="#59f0f0"/>
    </linearGradient>
  </defs>
  <path id="Unión_2" data-name="Unión 2" d="M-7140-774.922A76.034,76.034,0,0,1-7063.925-851a76.037,76.037,0,0,1,76.08,76.078,76.038,76.038,0,0,1-76.08,76.078A76.035,76.035,0,0,1-7140-774.922Zm10.144,0a66.008,66.008,0,0,0,65.932,65.932,66.007,66.007,0,0,0,65.935-65.932,66.009,66.009,0,0,0-65.935-65.934A66.01,66.01,0,0,0-7129.856-774.922Zm55.876,28.073a7.863,7.863,0,0,1,7.78-7.883,7.953,7.953,0,0,1,7.883,7.883,7.953,7.953,0,0,1-7.883,7.883A7.862,7.862,0,0,1-7073.98-746.85Zm2.045-21.808c0-8.8,3.892-13,6.861-15.564,3.377-2.865,9.112-6.04,9.112-11.567,0-4.711-4.1-6.961-9.214-6.961-10.444,0-8.193,7.883-13.722,7.883-2.765,0-6.144-1.843-6.144-5.837,0-5.528,6.349-13.718,20.169-13.718,13.106,0,21.809,7.269,21.809,16.893s-8.7,16.588-11.467,18.736c-5.63,4.4-5.733,7.476-5.733,12.8,0,1.946-1.023,4.2-6.039,4.2C-7070.5-761.8-7071.936-763.333-7071.936-768.658Z" transform="translate(7140 851)" fill="url(#linear-gradient)"/>
</svg>
