<svg xmlns="http://www.w3.org/2000/svg" width="32.66" height="39.278" viewBox="0 0 32.66 39.278"><defs><style>.a{fill:#212129;}</style></defs><g transform="translate(-0.575 -14.767)"><g transform="translate(0.575 14.767)"><path class="a" d="M144.453,164.843h-3.007A2.452,2.452,0,0,0,139.9,163.3v-5.213a.768.768,0,0,0-1.536,0V163.3a2.441,2.441,0,1,0,3.085,3.084h3.007a.768.768,0,0,0,0-1.536Zm-5.324,1.675a.905.905,0,1,1,.905-.905A.906.906,0,0,1,139.129,166.518Z" transform="translate(-122.748 -142.716)"/><path class="a" d="M33.23,39.55a.768.768,0,1,0-1.526-.175A14.838,14.838,0,1,1,19,22.958h.01a14.828,14.828,0,0,1,12.7,13,.768.768,0,1,0,1.526-.174,16.293,16.293,0,0,0-2.959-7.677L31.28,27.1a1.97,1.97,0,0,0,0-2.787l-.971-.971a1.97,1.97,0,0,0-2.787,0l-1.011,1.011a16.335,16.335,0,0,0-6.661-2.812V19.912a1.912,1.912,0,0,0,1.561-1.877V16.677a1.912,1.912,0,0,0-1.91-1.91H14.411a1.912,1.912,0,0,0-1.91,1.91v1.358a1.912,1.912,0,0,0,1.561,1.877v1.627A16.3,16.3,0,0,0,7.41,24.36l-1.02-1.02a1.973,1.973,0,0,0-2.787,0l-.971.971a1.97,1.97,0,0,0,0,2.787l1.02,1.02A16.379,16.379,0,1,0,33.23,39.55ZM28.608,24.426a.435.435,0,0,1,.614,0l.971.971a.434.434,0,0,1,0,.614l-.884.884a16.41,16.41,0,0,0-1.586-1.585Zm-14.57-7.749a.374.374,0,0,1,.374-.374H19.5a.374.374,0,0,1,.374.374v1.358a.374.374,0,0,1-.374.374H14.412a.374.374,0,0,1-.374-.374ZM15.6,19.945h2.715v1.394c-.448-.037-.9-.057-1.357-.057s-.91.02-1.357.057ZM3.719,26.012a.434.434,0,0,1,0-.615l.971-.971a.435.435,0,0,1,.615,0l.894.894a16.529,16.529,0,0,0-1.586,1.586Z" transform="translate(-0.575 -14.767)"/><path class="a" d="M47.575,112.5a12.888,12.888,0,1,0,12.887,12.887A12.9,12.9,0,0,0,47.575,112.5Zm10.8,13.656H58.9a11.3,11.3,0,0,1-2.777,6.693l-.365-.365a.768.768,0,1,0-1.086,1.086l.365.365a11.3,11.3,0,0,1-6.693,2.777v-.521a.768.768,0,0,0-1.536,0v.521a11.3,11.3,0,0,1-6.693-2.777l.365-.365a.768.768,0,1,0-1.086-1.086l-.365.365a11.3,11.3,0,0,1-2.777-6.693h.521a.768.768,0,1,0,0-1.536h-.521a11.3,11.3,0,0,1,2.777-6.693l.365.365a.768.768,0,1,0,1.086-1.086l-.365-.365a11.3,11.3,0,0,1,6.693-2.777v.521a.768.768,0,1,0,1.536,0v-.521a11.3,11.3,0,0,1,6.693,2.777l-.365.365a.768.768,0,1,0,1.086,1.086l.365-.365a11.3,11.3,0,0,1,2.777,6.693h-.521a.768.768,0,0,0,0,1.536Z" transform="translate(-31.194 -102.491)"/></g></g></svg>