<svg xmlns="http://www.w3.org/2000/svg" width="46.885" height="42.234" viewBox="0 0 46.885 42.234"><defs><style>.a{fill:#212129;}</style></defs><path class="a" d="M190.07,514.385l.762.783c.959-.559,1.043-.541,1.828.252,1.394,1.411,2.8,2.808,4.188,4.225a3.13,3.13,0,0,1-2.458,5.312,2.966,2.966,0,0,1-1.939-.9q-2.261-2.269-4.5-4.558c-.464-.473-.432-.749.144-1.5-.264-.286-.52-.6-.817-.862a.572.572,0,0,0-.441-.027c-.944.249-1.886.506-2.823.783a1.125,1.125,0,0,0-.422.308c-.043.042-.008.163-.008.248,0,1.1,0,2.2,0,3.361h.588c.881,0,1.763-.008,2.644,0a.808.808,0,0,1,.857.81.787.787,0,0,1-.868.737q-3.508.012-7.016.008l-27.657,0c-.136,0-.271,0-.407,0-.544-.022-.87-.325-.855-.794a.776.776,0,0,1,.847-.756c.864-.011,1.728,0,2.593,0h.625v-.678q0-10.4,0-20.8c0-1.079.165-1.247,1.225-1.248H157.9c0-.883,0-1.723,0-2.562,0-.931.232-1.162,1.176-1.157.488,0,.976,0,1.539,0,0-.517,0-.986,0-1.455.007-.583.3-.941.762-.951.486-.01.788.354.8.968.008.423.01.847.018,1.27a.784.784,0,0,0,.072.169c.517,0,1.07,0,1.622,0,.825,0,1.068.241,1.072,1.053,0,.861,0,1.722,0,2.622h.679v-.617q0-4.272,0-8.545c0-.878.236-1.112,1.121-1.113,1.251,0,2.5,0,3.831,0v-1.6c0-1.762,0-1.762,1.786-1.762h1.434V484.3c-.292,0-.574.008-.856,0-.549-.019-.877-.312-.882-.776a.777.777,0,0,1,.866-.787q1.678-.015,3.355,0a.759.759,0,0,1,.843.8c-.01.462-.306.735-.838.757-.284.012-.569,0-.882,0V485.4c.684,0,1.371,0,2.058,0,.949,0,1.155.216,1.156,1.175,0,.708,0,1.415,0,2.188H180.6c.644,0,1.288,0,1.932,0,.79.007,1.039.249,1.04,1.037q.006,5.06,0,10.121c0,.825,0,.825.807.936a8.606,8.606,0,0,1,5.959,13.1C190.261,514.089,190.179,514.216,190.07,514.385Zm-22.8-24.037a.935.935,0,0,0-.055.192q-.006,4.118,0,8.236c0,.119.053.3.137.345.491.24.509.664.509,1.122q-.006,10.448,0,20.9v.645h3.431v-.566q0-3.483,0-6.966c0-1.119.152-1.27,1.252-1.275.908,0,1.816,0,2.72,0l-.764-3.033-.583-.064V506.6a2.7,2.7,0,0,1,.486-.023c.454.064.674-.107.851-.554a7.78,7.78,0,0,1,2.425-3.27.921.921,0,0,0,.4-.858c-.029-.535-.007-1.073-.007-1.656.457,0,.844.01,1.229,0,.263-.009.368.1.356.358s0,.553,0,.833l2.327-.641v-10.44Zm-10.727,10.317v21.114H158.9V521.2c0-1.491,0-2.983,0-4.474,0-.715.261-.976.982-.983q1.524-.014,3.049-.006c.786,0,1.04.258,1.043,1.036,0,1.474,0,2.949,0,4.423,0,.194.017.389.025.585h2.257V500.665Zm33.581,8.673a7,7,0,1,0-6.994,7.064A7.046,7.046,0,0,0,190.123,509.337Zm-13.778,12.45V514.6h-3.464v7.19Zm5.645-3.926a9.188,9.188,0,0,1-4.016-1.61v5.515h4.016Zm13.079,2.276-3.365-3.3-2.129,2.084,3.469,3.361Zm-31.706-21.064v-2.112h-3.9c0,.639-.01,1.244.01,1.848,0,.09.144.251.223.252C160.915,499.079,162.128,499.074,163.364,499.074Zm-2.871,18.274v4.434h1.873v-4.434Zm16.531-30.367c-1.562,0-3.095,0-4.627.011-.079,0-.22.16-.225.25-.022.484-.011.97-.011,1.483h4.862Zm17.211,36.33a1.466,1.466,0,0,0,1.6-.514,1.4,1.4,0,0,0,.228-1.429Zm-4.421-6.963-.794-.755-.556.491.778.815Z" transform="translate(-150.866 -482.73)"/><path class="a" d="M418.284,592.46a1.733,1.733,0,0,1,.219-.055c1.364-.1,1.364-.1,1.364,1.262,0,.575-.008,1.15,0,1.724,0,.255-.084.349-.349.365-1.237.079-1.237.087-1.237-1.148Z" transform="translate(-391.089 -581.219)"/><path class="a" d="M337.282,595.7c-.1.063-.114.079-.128.08-1.439.158-1.439.158-1.439-1.276,0-.559.011-1.118,0-1.676-.007-.287.1-.372.385-.384,1.187-.051,1.186-.06,1.186,1.1Z" transform="translate(-316.913 -581.269)"/><path class="a" d="M337.186,658.107h-1.568c0-.392,0-.773,0-1.154,0-.542.018-1.086-.012-1.627-.022-.4.084-.569.528-.559,1.051.022,1.052,0,1.052,1.045C337.186,656.557,337.186,657.3,337.186,658.107Z" transform="translate(-316.817 -637.271)"/><path class="a" d="M377.471,655.174h1.48v3.29h-1.48Z" transform="translate(-354.427 -637.638)"/><path class="a" d="M337.655,720.48h-1.531v-3.324c.425,0,.843-.017,1.258.013a.385.385,0,0,1,.262.268C337.662,718.432,337.655,719.429,337.655,720.48Z" transform="translate(-317.284 -693.311)"/><path class="a" d="M378.916,596.333h-1.489v-3.286h1.489Z" transform="translate(-354.387 -581.829)"/><path class="a" d="M224.739,750.174v-2.947h1.507v2.947Z" transform="translate(-217.227 -720.329)"/><path class="a" d="M226.356,694.363h-1.5v-2.971h1.5Z" transform="translate(-217.332 -670.172)"/><path class="a" d="M269.287,691.386h1.49v2.968h-1.49Z" transform="translate(-257.244 -670.167)"/><path class="a" d="M270.837,750.147h-1.465v-2.965h1.465Z" transform="translate(-257.321 -720.289)"/><path class="a" d="M419.889,720.233h-1.583c0-1.037,0-2.047,0-3.057,0-.017,0-.039,0-.05.351-.453.836-.123,1.253-.2.087-.016.308.2.311.311C419.9,718.218,419.889,719.2,419.889,720.233Z" transform="translate(-391.108 -693.07)"/></svg>