<svg xmlns="http://www.w3.org/2000/svg" width="38.494" height="38.495" viewBox="0 0 38.494 38.495"><defs><style>.a{fill:#212129;}</style></defs><g transform="translate(-2 -2)"><path class="a" d="M44.079,16.51a4.491,4.491,0,0,0-8.931-.642H12V44.1H39.722a4.363,4.363,0,0,0,4.356-4.359Zm-7.7,0a3.208,3.208,0,1,1,6.416,0V36.463a4.485,4.485,0,0,0-6.416,0Zm3.343,26.3H13.283V17.152H35.1V39.607a.642.642,0,0,0,1.283,0,3.208,3.208,0,1,1,6.416,0v.135A3.08,3.08,0,0,1,39.722,42.815Z" transform="translate(-3.584 -3.604)"/><path class="a" d="M2,2v8.982H30.229V2ZM28.946,9.7H3.283V3.283H5.208V5.849H6.491V3.283H7.774V4.566H9.057V3.283H10.34V5.849h1.283V3.283h1.283V4.566H14.19V3.283h1.283V5.849h1.283V3.283h1.283V4.566h1.283V3.283h1.283V5.849h1.283V3.283h1.283V4.566h1.283V3.283h1.283V5.849h1.283V3.283h1.925Z" transform="translate(0)"/><path class="a" d="M4.566,18A2.566,2.566,0,0,0,2,20.566V41.738a.642.642,0,0,0,.064.287l1.925,3.849a.642.642,0,0,0,1.148,0l1.925-3.849a.642.642,0,0,0,.071-.287V20.566A2.566,2.566,0,0,0,4.566,18Zm.642,22.112V25.7h.642V40.54Zm.642-15.7H3.283V23.133H5.849ZM3.283,25.7h.642V40.112l-.642.428Zm0-5.133a1.283,1.283,0,0,1,2.566,0v1.283H3.283ZM4.566,44.153l-1.1-2.2,1.1-.733,1.1.731Z" transform="translate(0 -5.735)"/><path class="a" d="M25.7,26v6.416H21.849V33.7H25.7v5.133h5.133V37.548H26.982V27.283H33.4v15.4H23.081a4.491,4.491,0,0,0-3.8-3.8v-11.6h2.566V26H18V43.964H34.681V26ZM19.283,42.681v-2.5a3.218,3.218,0,0,1,2.5,2.5Z" transform="translate(-5.735 -8.602)"/></g></svg>