<svg xmlns="http://www.w3.org/2000/svg" width="41.905" height="50.396" viewBox="0 0 41.905 50.396">
  <g id="_002-dedicacion" data-name="002-dedicacion" transform="translate(-0.575 -14.767)">
    <g id="Grupo_1016" data-name="Grupo 1016" transform="translate(0.575 14.767)">
      <path id="Trazado_1829" data-name="Trazado 1829" d="M146.651,166.974h-3.859a3.146,3.146,0,0,0-1.987-1.986V158.3a.986.986,0,1,0-1.971,0v6.688a3.132,3.132,0,1,0,3.958,3.957h3.858a.986.986,0,0,0,0-1.971Zm-6.831,2.149a1.161,1.161,0,1,1,1.161-1.161A1.163,1.163,0,0,1,139.82,169.123Z" transform="translate(-118.802 -138.584)" fill="#fff"/>
      <path id="Trazado_1830" data-name="Trazado 1830" d="M42.473,46.565a.986.986,0,0,0-1.958-.225A19.038,19.038,0,1,1,24.209,25.277l.013,0A19.025,19.025,0,0,1,40.515,41.957a.986.986,0,1,0,1.958-.224,20.9,20.9,0,0,0-3.8-9.85l1.294-1.294a2.527,2.527,0,0,0,0-3.576l-1.246-1.246a2.527,2.527,0,0,0-3.576,0l-1.3,1.3a20.959,20.959,0,0,0-8.546-3.608V21.368a2.453,2.453,0,0,0,2-2.408V17.218a2.453,2.453,0,0,0-2.451-2.451h-6.53a2.453,2.453,0,0,0-2.451,2.451V18.96a2.453,2.453,0,0,0,2,2.408v2.087a20.913,20.913,0,0,0-8.535,3.62L8.037,25.767a2.532,2.532,0,0,0-3.576,0L3.215,27.013a2.527,2.527,0,0,0,0,3.576L4.523,31.9a21.015,21.015,0,1,0,37.95,14.668Zm-5.93-19.4a.558.558,0,0,1,.788,0l1.246,1.246a.557.557,0,0,1,0,.788l-1.134,1.134A21.055,21.055,0,0,0,35.408,28.3ZM17.848,17.218a.48.48,0,0,1,.48-.48h6.53a.48.48,0,0,1,.48.48V18.96a.48.48,0,0,1-.48.48h-6.53a.48.48,0,0,1-.48-.48Zm2,4.193h3.483V23.2c-.575-.047-1.156-.073-1.742-.073s-1.167.025-1.742.073ZM4.608,29.195a.557.557,0,0,1,0-.789L5.854,27.16a.558.558,0,0,1,.789,0L7.79,28.308a21.208,21.208,0,0,0-2.035,2.035Z" transform="translate(-0.575 -14.767)" fill="#fff"/>
      <path id="Trazado_1832" data-name="Trazado 1832" d="M51.223,112.5a16.535,16.535,0,1,0,16.535,16.535A16.556,16.556,0,0,0,51.223,112.5Zm13.862,17.521h.668a14.5,14.5,0,0,1-3.564,8.588l-.468-.468a.985.985,0,1,0-1.394,1.394L60.8,140a14.5,14.5,0,0,1-8.588,3.564V142.9a.986.986,0,0,0-1.971,0v.668A14.5,14.5,0,0,1,41.65,140l.468-.468a.985.985,0,1,0-1.394-1.393l-.468.468a14.5,14.5,0,0,1-3.564-8.588h.668a.986.986,0,1,0,0-1.971h-.668a14.5,14.5,0,0,1,3.564-8.587l.468.468a.985.985,0,1,0,1.394-1.394l-.468-.468a14.5,14.5,0,0,1,8.588-3.564v.668a.986.986,0,0,0,1.971,0V114.5a14.5,14.5,0,0,1,8.588,3.564l-.468.468a.985.985,0,1,0,1.394,1.394l.468-.468a14.5,14.5,0,0,1,3.564,8.587h-.668a.986.986,0,0,0,0,1.971Z" transform="translate(-30.205 -99.658)" fill="#fff"/>
    </g>
  </g>
</svg>
