<svg xmlns="http://www.w3.org/2000/svg" width="40.765" height="40.765" viewBox="0 0 40.765 40.765">
  <g id="Blueprint" transform="translate(-2 -2)">
    <path id="Trazado_1845" data-name="Trazado 1845" d="M45.971,16.773a4.756,4.756,0,0,0-9.457-.679H12V45.988H41.357a4.62,4.62,0,0,0,4.613-4.616Zm-8.153,0a3.4,3.4,0,1,1,6.794,0V37.9a4.75,4.75,0,0,0-6.794,0Zm3.54,27.856h-28V17.452h23.1V41.232a.679.679,0,0,0,1.359,0,3.4,3.4,0,1,1,6.794,0v.143A3.261,3.261,0,0,1,41.357,44.629Z" transform="translate(-3.206 -3.223)" fill="#fff"/>
    <path id="Trazado_1846" data-name="Trazado 1846" d="M2,2v9.512H31.894V2Zm28.535,8.153H3.359V3.359H5.4V6.076H6.756V3.359H8.115V4.718H9.474V3.359h1.359V6.076h1.359V3.359H13.55V4.718h1.359V3.359h1.359V6.076h1.359V3.359h1.359V4.718h1.359V3.359H21.7V6.076h1.359V3.359h1.359V4.718h1.359V3.359h1.359V6.076H28.5V3.359h2.038Z" transform="translate(0)" fill="#fff"/>
    <path id="Trazado_1847" data-name="Trazado 1847" d="M4.718,18A2.718,2.718,0,0,0,2,20.718V43.138a.679.679,0,0,0,.068.3l2.038,4.076a.679.679,0,0,0,1.216,0l2.038-4.076a.679.679,0,0,0,.075-.3V20.718A2.718,2.718,0,0,0,4.718,18ZM5.4,41.416V26.153h.679V41.869Zm.679-16.622H3.359V23.435H6.076ZM3.359,26.153h.679V41.416l-.679.453Zm0-5.435a1.359,1.359,0,0,1,2.718,0v1.359H3.359ZM4.718,45.7,3.555,43.371l1.162-.776,1.162.775Z" transform="translate(0 -5.129)" fill="#fff"/>
    <path id="Trazado_1848" data-name="Trazado 1848" d="M26.153,26v6.794H22.076v1.359h4.076v5.435h5.435V38.229H27.512V27.359h6.794V43.665H23.381a4.756,4.756,0,0,0-4.022-4.022V27.359h2.718V26H18V45.024H35.665V26ZM19.359,43.665v-2.65a3.408,3.408,0,0,1,2.65,2.65Z" transform="translate(-5.129 -7.694)" fill="#fff"/>
  </g>
</svg>
