<svg xmlns="http://www.w3.org/2000/svg" xmlns:xlink="http://www.w3.org/1999/xlink" width="151.083" height="176.258" viewBox="0 0 151.083 176.258">
  <defs>
    <linearGradient id="linear-gradient" x1="0.5" y1="-16.71" x2="0.5" y2="3.55" gradientUnits="objectBoundingBox">
      <stop offset="0" stop-color="#59f0f0"/>
      <stop offset="0.532" stop-color="#7588ec"/>
      <stop offset="1" stop-color="#af4ee2"/>
    </linearGradient>
    <linearGradient id="linear-gradient-2" x1="0.5" y1="-0.931" x2="0.5" y2="5.665" xlink:href="#linear-gradient"/>
    <linearGradient id="linear-gradient-3" x1="0.5" y1="-10.945" x2="0.5" y2="23.707" xlink:href="#linear-gradient"/>
    <linearGradient id="linear-gradient-4" x1="0.5" y1="-0.442" x2="0.5" y2="5.003" xlink:href="#linear-gradient"/>
    <linearGradient id="linear-gradient-5" x1="0.5" y1="-10.425" x2="0.5" y2="24.227" xlink:href="#linear-gradient"/>
    <linearGradient id="linear-gradient-6" x1="0.5" y1="-8.72" x2="0.5" y2="7.107" xlink:href="#linear-gradient"/>
    <linearGradient id="linear-gradient-7" x1="0.5" y1="-0.003" x2="0.5" y2="1.012" xlink:href="#linear-gradient"/>
    <linearGradient id="linear-gradient-8" x1="0.5" y1="-8.722" x2="0.5" y2="7.108" xlink:href="#linear-gradient"/>
  </defs>
  <g id="Grupo_3882" data-name="Grupo 3882" transform="translate(-452.906 -333.65)">
    <path id="Trazado_2143" data-name="Trazado 2143" d="M526.432,486.415c3.04-1.272,7.57-.243,9.5,2.156a2.581,2.581,0,1,0,4.02-3.237c-3.381-4.193-10.341-5.842-15.516-3.678a2.579,2.579,0,1,0,1.992,4.759Z" transform="translate(-0.021 -0.044)" fill="url(#linear-gradient)"/>
    <path id="Trazado_2144" data-name="Trazado 2144" d="M566.875,372.167h0a2.579,2.579,0,0,0,2.581-2.579v-2.48a3.832,3.832,0,0,1,7.664,0v2.478c0,.665-.961,1.8-1.809,2.806-1.43,1.693-3.212,3.8-3.212,6.609v3.9a2.581,2.581,0,0,0,5.162,0V379c0-.922,1.014-2.121,1.994-3.281,1.419-1.68,3.026-3.582,3.026-6.133v-2.479a9,9,0,0,0-17.988,0v2.478A2.58,2.58,0,0,0,566.875,372.167Z" transform="translate(-0.033 -0.007)" fill="url(#linear-gradient-2)"/>
    <path id="Trazado_2145" data-name="Trazado 2145" d="M574.7,389.631a2.582,2.582,0,0,0-2.582,2.579v.01a2.581,2.581,0,1,0,2.582-2.589Z" transform="translate(-0.036 -0.017)" fill="url(#linear-gradient-3)"/>
    <path id="Trazado_2146" data-name="Trazado 2146" d="M498.593,361.309v-3.083a10.579,10.579,0,0,0-21.158,0v3.083a2.581,2.581,0,0,0,5.163,0v-3.083a5.416,5.416,0,0,1,10.833,0v3.083c0,1.059-1.221,2.506-2.4,3.9-1.807,2.141-3.858,4.569-3.858,7.843v4.859a2.581,2.581,0,0,0,5.163,0v-4.859c0-1.389,1.283-2.907,2.641-4.516C496.669,366.531,498.593,364.253,498.593,361.309Z" transform="translate(-0.007 -0.004)" fill="url(#linear-gradient-4)"/>
    <path id="Trazado_2147" data-name="Trazado 2147" d="M489.763,386.947a2.581,2.581,0,0,0-2.581,2.579v.02a2.581,2.581,0,1,0,2.581-2.6Z" transform="translate(-0.01 -0.016)" fill="url(#linear-gradient-5)"/>
    <path id="Trazado_2148" data-name="Trazado 2148" d="M545.865,437.449c.032-.01.065-.02.1-.032v0c4.4-1.445,10.884-.17,13.7,4.412a2.581,2.581,0,0,0,4.4-2.7c-4.188-6.819-13.308-8.718-19.71-6.613a2.579,2.579,0,1,0,1.517,4.931Z" transform="translate(-0.027 -0.029)" fill="url(#linear-gradient-6)"/>
    <path id="Trazado_2149" data-name="Trazado 2149" d="M594.8,431.925h-5.854a73.9,73.9,0,0,0-5.562-26.9,29.661,29.661,0,0,0,12.093-48.963c-.089-.09-.178-.18-.269-.269a30.143,30.143,0,0,0-42.328,0,29.336,29.336,0,0,0-8.3,15.7,60.049,60.049,0,0,0-13.869-1.846h-.083q-2.168.036-4.306.223a35.067,35.067,0,0,0-.35-4.877,36.02,36.02,0,0,0-10.4-20.658,36.858,36.858,0,0,0-57.3,6.788,2.58,2.58,0,1,0,4.392,2.71,32.2,32.2,0,0,1,4.645-5.841,31.791,31.791,0,0,1,44.635,0,30.98,30.98,0,0,1,9.271,22.539,30.48,30.48,0,0,1-.561,5.381,31.3,31.3,0,0,1-3.19,8.9,2.588,2.588,0,0,0-.262,1.715L519.821,400l-13.63-2.592a2.585,2.585,0,0,0-1.694.254,32,32,0,0,1-37.189-5.474,31.016,31.016,0,0,1-8.572-28.471,2.582,2.582,0,0,0-5.055-1.056,36.156,36.156,0,0,0,10,33.19,36.534,36.534,0,0,0,14.433,8.832,73.733,73.733,0,0,0-5.709,27.246h-5.858a8.229,8.229,0,0,0-8.24,8.2v5.551c0,3.86,1.918,7.966,5.266,11.266a19.049,19.049,0,0,0,10.388,5.406,62.359,62.359,0,0,0,9.689,19.435,2.581,2.581,0,1,0,4.184-3.022c-6.648-9.191-10.309-18.907-10.309-27.359V436.842c10.753-1.334,15.566-6.2,19.484-10.15,3.655-3.7,5.86-5.925,12.063-4.347,2.811.719,5.191,1.348,7.3,1.905,7.024,1.857,10.552,2.792,14.309,2.792s7.282-.932,14.3-2.789c2.106-.557,4.5-1.187,7.313-1.905,6.206-1.586,8.411.647,12.069,4.344,3.915,3.957,8.724,8.816,19.478,10.15V451.4c0,19.174-18.731,42.872-40.089,50.714a33.747,33.747,0,0,1-26.13,0,63.215,63.215,0,0,1-22.775-15.088,2.584,2.584,0,1,0-3.681,3.628,68.389,68.389,0,0,0,24.665,16.306,38.854,38.854,0,0,0,29.7,0c11.447-4.2,22.334-12.421,30.655-23.141a64.012,64.012,0,0,0,11.193-21.47,19.043,19.043,0,0,0,10.419-5.412c3.346-3.3,5.265-7.4,5.265-11.263v-5.551A8.234,8.234,0,0,0,594.8,431.925ZM467.191,453.263h0c-2.37-2.336-3.73-5.1-3.73-7.593v-5.551a3.064,3.064,0,0,1,3.079-3.041h5.816V451.4a37.168,37.168,0,0,0,.4,5.373A14.948,14.948,0,0,1,467.191,453.263Zm82.336-80.276a24.407,24.407,0,0,1,6.99-13.539,24.968,24.968,0,0,1,35.059,0,24.362,24.362,0,0,1,.237,34.452c-.078.08-.158.159-.237.238a24.827,24.827,0,0,1-29.222,4.306,2.55,2.55,0,0,0-1.207-.3,2.59,2.59,0,0,0-.482.048l-10.176,1.936,1.95-10.055a2.573,2.573,0,0,0-.261-1.712,24.435,24.435,0,0,1-2.887-9.915,23.89,23.89,0,0,1,.237-5.454Zm18.485,50.078,0-.007c-3.9-3.948-7.94-8.031-17.014-5.715-2.843.726-5.241,1.362-7.354,1.919-6.583,1.743-9.884,2.617-12.974,2.617s-6.4-.877-13-2.62c-2.109-.561-4.5-1.194-7.337-1.915-9.068-2.314-13.105,1.767-17.011,5.715-3.417,3.456-7.25,7.329-15.765,8.566a67.579,67.579,0,0,1,5.617-25.692c.433.076.87.145,1.307.206a37.338,37.338,0,0,0,21.6-3.5l15.022,2.868a3.675,3.675,0,0,0,3.538-.684c1.133-1.132.871-2.5.654-3.628l-2.867-14.754a36.3,36.3,0,0,0,3.536-11.342c1.565-.165,3.134-.261,4.7-.289a54.333,54.333,0,0,1,13.439,1.936,29.752,29.752,0,0,0,3.09,13.23l-2.26,11.658a3.074,3.074,0,0,0,3.944,4.058l11.879-2.262a30.43,30.43,0,0,0,17.472,2.782.083.083,0,0,0,.041-.007,67.7,67.7,0,0,1,5.5,25.431C575.263,430.394,571.431,426.522,568.013,423.065Zm29.876,22.6c0,2.488-1.359,5.254-3.729,7.59a14.944,14.944,0,0,1-5.59,3.517,36.573,36.573,0,0,0,.416-5.38V437.083H594.8a3.067,3.067,0,0,1,3.087,3.041Z" transform="translate(0 0)" fill="url(#linear-gradient-7)"/>
    <path id="Trazado_2150" data-name="Trazado 2150" d="M494.849,439.132a2.581,2.581,0,0,0,4.4,2.7c2.813-4.582,9.3-5.857,13.7-4.412a2.579,2.579,0,1,0,1.725-4.862l-.112-.037,0,0C508.161,430.419,499.036,432.313,494.849,439.132Z" transform="translate(-0.012 -0.029)" fill="url(#linear-gradient-8)"/>
  </g>
</svg>
