<svg id="Grupo_4000" data-name="Grupo 4000" xmlns="http://www.w3.org/2000/svg" width="93.282" height="96.673" viewBox="0 0 93.282 96.673">
  <path id="Trazado_1804" data-name="Trazado 1804" d="M1283.288,58.442h-10.922a5.159,5.159,0,0,0-5.157,5.165v.563a5.16,5.16,0,0,0,5.161,5.168h10.918a5.174,5.174,0,0,0,5.168-5.168l0-.566A5.16,5.16,0,0,0,1283.288,58.442Z" transform="translate(-1195.175 -14.024)" fill="#fff"/>
  <path id="Trazado_1805" data-name="Trazado 1805" d="M1336.888,78.6h-2.273V53.6a6.55,6.55,0,0,0-6.532-6.532h-43.1a6.549,6.549,0,0,0-6.532,6.532V71.535c-8.692,4.915-17.657,10.048-17.677,10.063-4.868,2-12,8.466-12,23.729a36.969,36.969,0,0,0,.215,3.836c.043.355.086.7.133,1.043.125.891.285,1.746.473,2.559.066.289.121.59.192.867a25.279,25.279,0,0,0,.875,2.656c.164.414.343.793.523,1.184.2.406.391.813.6,1.188.242.453.484.891.746,1.3.067.1.133.188.2.285,6.286,9.5,17.88,9.544,17.88,9.544h7.844v7.423a6.551,6.551,0,0,0,6.532,6.528h43.1a6.551,6.551,0,0,0,6.532-6.528v-9.052h1v-.008h1.273a5.162,5.162,0,0,0,5.168-5.168l0-.563a5.164,5.164,0,0,0-5.168-5.157h-10.922a5.153,5.153,0,0,0-5.157,5.161V123a5.167,5.167,0,0,0,5.161,5.165h4.1v3.5h-47.074v-46.9c2.367-1.5,4.555-2.942,5.805-3.911,6.325-4.891,12.329-8.786,13.142-12.321,1.059-4.582-2.461-8.446-8.567-5.274-1.922,1-5.872,3.188-10.38,5.719V57.421l47.074.008V78.6h-2.816v0h-1.281a5.168,5.168,0,0,0-5.172,5.168v.563a5.162,5.162,0,0,0,5.165,5.161h10.922a5.162,5.162,0,0,0,5.165-5.161v-.578A5.158,5.158,0,0,0,1336.888,78.6Zm-30.362,55.361a3.266,3.266,0,1,1-3.262,3.266A3.266,3.266,0,0,1,1306.525,133.959Zm6.9-80.6h-13.794a.789.789,0,0,1,0-1.578h13.794a.789.789,0,0,1,0,1.578Z" transform="translate(-1248.77 -47.072)" fill="#fff"/>
  <path id="Trazado_1806" data-name="Trazado 1806" d="M1283.294,61.741h-10.922a5.171,5.171,0,0,0-5.165,5.168v.566a5.163,5.163,0,0,0,5.165,5.165h10.919a5.168,5.168,0,0,0,5.168-5.165v-.566A5.164,5.164,0,0,0,1283.294,61.741Z" transform="translate(-1195.181 -4.435)" fill="#fff"/>
</svg>
