<svg xmlns="http://www.w3.org/2000/svg" width="45.197" height="31.638" viewBox="0 0 45.197 31.638"><defs><style>.a{fill:#212129;}</style></defs><g transform="translate(-309.029 -50)"><path class="a" d="M46.443,35.858H30.624V33.6h.753a2.26,2.26,0,0,0,2.26-2.26v-4.52a2.26,2.26,0,0,0-2.26-2.26h-.807a14.573,14.573,0,0,0-13.738-13.55A14.312,14.312,0,0,0,2,25.312v7.533a9.8,9.8,0,0,0,9.793,9.793H29.871a.753.753,0,0,0,.753-.753V40.378H45.69v1.507H47.2V36.611A.753.753,0,0,0,46.443,35.858ZM31.378,32.092h-.753v-2.26h1.507v1.507A.753.753,0,0,1,31.378,32.092Zm.753-5.273v1.507H30.624v-2.26h.753A.753.753,0,0,1,32.131,26.819ZM3.507,25.312a12.806,12.806,0,0,1,12.8-12.806c.157,0,.314,0,.472.008A13.082,13.082,0,0,1,29.118,25.638v10.22H4.082a8.231,8.231,0,0,1-.576-3.013Zm24.1,15.819v-2.26H26.1v2.26H24.6v-2.26H23.092v2.26H21.585v-2.26H20.079v2.26H18.572v-2.26H17.066v2.26H15.559v-2.26H14.052v2.26H12.546v-2.26H11.039v2.221a8.286,8.286,0,0,1-6.183-3.728H29.118v3.766Zm3.013-3.766H42.677v1.507H30.624Zm13.559,1.507V37.365H45.69v1.507Z" transform="translate(307.029 39.001)"/><path class="a" d="M18.057,36.114A9.057,9.057,0,1,0,9,27.057a9.057,9.057,0,0,0,9.057,9.057ZM10.548,26.3a7.506,7.506,0,0,1,1.669-4.018l1.571,1.571,1.067-1.067-1.571-1.571A7.506,7.506,0,0,1,17.3,19.548v2.226h1.51V19.548a7.506,7.506,0,0,1,4.018,1.669l-1.571,1.571,1.067,1.067L23.9,22.284A7.506,7.506,0,0,1,25.566,26.3H23.34v1.509h2.226A7.506,7.506,0,0,1,23.9,31.83l-1.571-1.571-1.067,1.067L22.83,32.9a7.506,7.506,0,0,1-4.018,1.669V32.34H17.3v2.226A7.506,7.506,0,0,1,13.284,32.9l1.571-1.571-1.067-1.067L12.217,31.83a7.506,7.506,0,0,1-1.669-4.018h2.226V26.3Z" transform="translate(305.313 37.26)"/><path class="a" d="M19.774,32.547A3.774,3.774,0,1,0,16,28.774,3.774,3.774,0,0,0,19.774,32.547Zm0-6.038a2.264,2.264,0,1,1-2.264,2.264A2.264,2.264,0,0,1,19.774,26.51Z" transform="translate(303.571 35.54)"/></g></svg>