<svg xmlns="http://www.w3.org/2000/svg" width="39.481" height="39.493" viewBox="0 0 39.481 39.493"><defs><style>.a{fill:#212129;}</style></defs><g transform="translate(-0.501)"><path class="a" d="M220.041,331.51a.772.772,0,1,0-1.091,0A.772.772,0,0,0,220.041,331.51Zm0,0" transform="translate(-201.391 -304.724)"/><path class="a" d="M188.449,8.482A8.482,8.482,0,1,0,196.932,0,8.492,8.492,0,0,0,188.449,8.482Zm15.423,0a6.94,6.94,0,1,1-6.94-6.94A6.948,6.948,0,0,1,203.872,8.482Zm0,0" transform="translate(-173.451)"/><path class="a" d="M9.383,235.207a.771.771,0,0,0,1.088.006l3.739-3.683a2.33,2.33,0,0,0,.549-2.393l.8-.776a2.3,2.3,0,0,1,1.606-.649H27.42a6.9,6.9,0,0,0,4.841-1.967c.054-.052-.407.491,6.994-8.355a3.085,3.085,0,0,0-4.694-4l-4.55,4.677a3.1,3.1,0,0,0-2.4-1.148h-8.6a9.949,9.949,0,0,0-3.862-.771,9.54,9.54,0,0,0-8.7,4.931,2.3,2.3,0,0,0-2.062.639L.726,225.395a.771.771,0,0,0,0,1.088Zm5.769-17.519a8.418,8.418,0,0,1,3.395.707.77.77,0,0,0,.309.065h8.757a1.542,1.542,0,1,1,0,3.084H21.322a.771.771,0,0,0,0,1.542h6.292a3.08,3.08,0,0,0,3.057-3.488c4.4-4.525,5.022-5.16,5.049-5.192a1.543,1.543,0,1,1,2.355,1.993l-6.917,8.268a5.37,5.37,0,0,1-3.738,1.5H17.169a3.834,3.834,0,0,0-2.677,1.081l-.655.632L7.8,221.843A7.962,7.962,0,0,1,15.152,217.688Zm-9.667,5.117a.769.769,0,0,1,.955-.108c.133.081-.25-.268,6.679,6.652a.773.773,0,0,1,0,1.087l-3.187,3.14L2.36,225.941Zm0,0" transform="translate(0 -195.942)"/><path class="a" d="M267.378,40.76v.9a2.313,2.313,0,0,0,.771,4.494.771.771,0,1,1,0,1.542,1.4,1.4,0,0,1-1-.583.771.771,0,1,0-1.181.993,3.2,3.2,0,0,0,1.411,1v.9a.771.771,0,0,0,1.542,0v-.9a2.313,2.313,0,0,0-.771-4.494.771.771,0,0,1,0-1.542,1.238,1.238,0,0,1,.834.4.771.771,0,0,0,1.073-1.108,2.979,2.979,0,0,0-1.136-.71v-.9a.771.771,0,1,0-1.542,0Zm0,0" transform="translate(-244.823 -36.904)"/></g></svg>