<svg xmlns="http://www.w3.org/2000/svg" width="35.991" height="35.991" viewBox="0 0 35.991 35.991">
  <g id="Grupo_386" data-name="Grupo 386" transform="translate(0.4 0.4)">
    <g id="Grupo_362" data-name="Grupo 362" transform="translate(3.513 3.513)">
      <g id="Grupo_361" data-name="Grupo 361">
        <path id="Trazado_1720" data-name="Trazado 1720" d="M48.059,20.48H21.067a.587.587,0,0,0-.587.587V48.059a.587.587,0,0,0,.587.587H48.059a.587.587,0,0,0,.587-.587V21.067A.586.586,0,0,0,48.059,20.48Zm-.587,26.993H21.654V21.654H47.473V47.473Z" transform="translate(-20.48 -20.48)" fill="#fff" stroke="#fff" stroke-width="0.8"/>
      </g>
    </g>
    <g id="Grupo_364" data-name="Grupo 364" transform="translate(3.513)">
      <g id="Grupo_363" data-name="Grupo 363">
        <path id="Trazado_1721" data-name="Trazado 1721" d="M21.065,0a.585.585,0,0,0-.585.585V2.342a.585.585,0,1,0,1.171,0V.586A.585.585,0,0,0,21.065,0Z" transform="translate(-20.48)" fill="#fff" stroke="#fff" stroke-width="0.8"/>
      </g>
    </g>
    <g id="Grupo_366" data-name="Grupo 366" transform="translate(0 3.513)">
      <g id="Grupo_365" data-name="Grupo 365">
        <path id="Trazado_1722" data-name="Trazado 1722" d="M2.342,20.48H.585a.585.585,0,1,0,0,1.171H2.342a.585.585,0,1,0,0-1.171Z" transform="translate(0 -20.48)" fill="#fff" stroke="#fff" stroke-width="0.8"/>
      </g>
    </g>
    <g id="Grupo_368" data-name="Grupo 368" transform="translate(0 30.508)">
      <g id="Grupo_367" data-name="Grupo 367">
        <path id="Trazado_1723" data-name="Trazado 1723" d="M2.342,177.493H.585a.585.585,0,1,0,0,1.171H2.342a.585.585,0,1,0,0-1.171Z" transform="translate(0 -177.493)" fill="#fff" stroke="#fff" stroke-width="0.8"/>
      </g>
    </g>
    <g id="Grupo_370" data-name="Grupo 370" transform="translate(3.513 32.264)">
      <g id="Grupo_369" data-name="Grupo 369">
        <path id="Trazado_1724" data-name="Trazado 1724" d="M21.065,187.733a.585.585,0,0,0-.585.585v1.756a.585.585,0,0,0,1.171,0v-1.756A.585.585,0,0,0,21.065,187.733Z" transform="translate(-20.48 -187.733)" fill="#fff" stroke="#fff" stroke-width="0.8"/>
      </g>
    </g>
    <g id="Grupo_372" data-name="Grupo 372" transform="translate(30.508 32.264)">
      <g id="Grupo_371" data-name="Grupo 371">
        <path id="Trazado_1725" data-name="Trazado 1725" d="M178.079,187.733a.585.585,0,0,0-.585.585v1.756a.585.585,0,0,0,1.171,0v-1.756A.585.585,0,0,0,178.079,187.733Z" transform="translate(-177.494 -187.733)" fill="#fff" stroke="#fff" stroke-width="0.8"/>
      </g>
    </g>
    <g id="Grupo_374" data-name="Grupo 374" transform="translate(32.264 30.508)">
      <g id="Grupo_373" data-name="Grupo 373">
        <path id="Trazado_1726" data-name="Trazado 1726" d="M190.076,177.493h-1.756a.585.585,0,1,0,0,1.171h1.756a.585.585,0,0,0,0-1.171Z" transform="translate(-187.734 -177.493)" fill="#fff" stroke="#fff" stroke-width="0.8"/>
      </g>
    </g>
    <g id="Grupo_376" data-name="Grupo 376" transform="translate(32.264 3.513)">
      <g id="Grupo_375" data-name="Grupo 375">
        <path id="Trazado_1727" data-name="Trazado 1727" d="M190.076,20.48h-1.756a.585.585,0,1,0,0,1.171h1.756a.585.585,0,0,0,0-1.171Z" transform="translate(-187.734 -20.48)" fill="#fff" stroke="#fff" stroke-width="0.8"/>
      </g>
    </g>
    <g id="Grupo_378" data-name="Grupo 378" transform="translate(30.508)">
      <g id="Grupo_377" data-name="Grupo 377">
        <path id="Trazado_1728" data-name="Trazado 1728" d="M178.079,0a.585.585,0,0,0-.585.585V2.342a.585.585,0,0,0,1.171,0V.586A.585.585,0,0,0,178.079,0Z" transform="translate(-177.494)" fill="#fff" stroke="#fff" stroke-width="0.8"/>
      </g>
    </g>
  </g>
</svg>
