<svg xmlns="http://www.w3.org/2000/svg" width="33.06" height="33.096" viewBox="0 0 33.06 33.096">
  <g id="edit" transform="translate(-0.561 0.125)" style="mix-blend-mode: screen;isolation: isolate">
    <g id="Group_4121" data-name="Group 4121" transform="translate(0.689 0)">
      <g id="Group_4120" data-name="Group 4120" transform="translate(0)">
        <path id="Path_2334" data-name="Path 2334" d="M27.1,32.846h.222l10.708-2.33a1.054,1.054,0,0,0,.555-.277L56.723,12.1A6.991,6.991,0,0,0,58.776,7.1a7.212,7.212,0,0,0-2.053-5.049A6.99,6.99,0,0,0,51.73,0a6.824,6.824,0,0,0-4.993,2.108L28.649,20.252a1,1,0,0,0-.333.5l-2.33,10.708a1.22,1.22,0,0,0,.333,1.054A1.11,1.11,0,0,0,27.1,32.846ZM51.73,2.22a4.827,4.827,0,0,1,4.827,4.827q0,.028,0,.056a4.661,4.661,0,0,1-1.387,3.384l-6.824-6.88A4.772,4.772,0,0,1,51.73,2.22Zm-4.938,3,6.824,6.824L37.8,27.8l-6.824-6.769Zm-16.7,18.032,5.493,5.493-7.046,1.554Z" transform="translate(-25.97 0)" fill="#fff" stroke="#000" stroke-width="0.25"/>
      </g>
    </g>
  </g>
</svg>
