<svg id="Grupo_786" data-name="Grupo 786" xmlns="http://www.w3.org/2000/svg" width="65.098" height="58.64" viewBox="0 0 65.098 58.64">
  <path id="Trazado_1677" data-name="Trazado 1677" d="M205.3,526.681l1.058,1.087c1.331-.777,1.449-.752,2.538.35,1.935,1.959,3.889,3.9,5.815,5.867a4.346,4.346,0,0,1-3.413,7.375,4.118,4.118,0,0,1-2.692-1.254q-3.14-3.15-6.252-6.329c-.644-.657-.6-1.04.2-2.079-.367-.4-.722-.829-1.135-1.2a.8.8,0,0,0-.613-.037c-1.311.345-2.619.7-3.919,1.087a1.563,1.563,0,0,0-.585.427c-.059.059-.012.226-.012.344,0,1.526,0,3.052,0,4.666h.816c1.224,0,2.447-.012,3.671.006a1.121,1.121,0,0,1,1.19,1.125,1.093,1.093,0,0,1-1.206,1.023q-4.871.016-9.741.01l-38.4-.006c-.188,0-.377,0-.565,0-.755-.03-1.208-.452-1.188-1.1a1.078,1.078,0,0,1,1.177-1.049c1.2-.015,2.4,0,3.6,0h.868v-.942q0-14.441,0-28.882c0-1.5.229-1.731,1.7-1.733h2.419c0-1.225,0-2.392,0-3.558,0-1.293.322-1.613,1.633-1.607.678,0,1.355,0,2.136,0,0-.717-.007-1.369,0-2.02.01-.809.415-1.307,1.058-1.32.674-.014,1.095.492,1.111,1.345.011.588.014,1.176.025,1.764a1.087,1.087,0,0,0,.1.235c.718,0,1.485,0,2.252,0,1.146.005,1.483.335,1.488,1.462.005,1.2,0,2.391,0,3.641h.943v-.856q0-5.932,0-11.864c0-1.22.328-1.543,1.557-1.546,1.737,0,3.475,0,5.319,0v-2.228c0-2.447,0-2.447,2.48-2.447h1.992v-1.519c-.406,0-.8.011-1.188,0-.763-.026-1.218-.433-1.224-1.077a1.079,1.079,0,0,1,1.2-1.093q2.329-.021,4.659,0a1.054,1.054,0,0,1,1.17,1.116c-.014.641-.425,1.021-1.163,1.052-.395.016-.79,0-1.225,0v1.519c.95,0,1.9,0,2.858,0,1.317.007,1.6.3,1.6,1.631,0,.982,0,1.965,0,3.038h2.734c.894,0,1.788,0,2.682.007,1.1.01,1.443.345,1.444,1.439q.008,7.026,0,14.053c0,1.146,0,1.146,1.12,1.3a11.949,11.949,0,0,1,8.274,18.2C205.564,526.27,205.451,526.446,205.3,526.681Zm-31.658-33.373a1.3,1.3,0,0,0-.076.267q-.008,5.718,0,11.436c0,.165.074.423.19.48.681.333.707.921.706,1.558q-.008,14.507,0,29.014v.9h4.764v-.786q0-4.836,0-9.671c0-1.554.211-1.763,1.738-1.77,1.261-.006,2.521,0,3.776,0l-1.061-4.211-.809-.088v-4.554a3.748,3.748,0,0,1,.675-.032c.631.089.935-.148,1.181-.77a10.8,10.8,0,0,1,3.367-4.54,1.279,1.279,0,0,0,.549-1.191c-.041-.743-.01-1.489-.01-2.3.635,0,1.171.014,1.707,0,.366-.012.512.132.494.5-.019.383,0,.768,0,1.157l3.231-.889v-14.5Zm-14.893,14.324v29.315h3.272v-.8c0-2.071,0-4.141,0-6.212,0-.993.363-1.356,1.364-1.365q2.117-.019,4.234-.008c1.091.005,1.444.358,1.448,1.438.006,2.047,0,4.094,0,6.141,0,.27.023.54.035.812h3.133V507.631Zm46.625,12.042a9.719,9.719,0,1,0-9.71,9.807A9.783,9.783,0,0,0,205.373,519.673Zm-19.13,17.287v-9.984h-4.809v9.984Zm7.838-5.451a12.756,12.756,0,0,1-5.577-2.235v7.658h5.577Zm18.16,3.159-4.671-4.589-2.956,2.894,4.817,4.667Zm-44.021-29.246v-2.932h-5.408c0,.888-.013,1.728.014,2.566,0,.125.2.349.31.35C164.819,505.43,166.5,505.423,168.219,505.423ZM164.233,530.8v6.157h2.6V530.8Zm22.952-42.163c-2.169,0-4.3-.005-6.424.015-.11,0-.306.222-.312.348-.031.672-.015,1.347-.015,2.058h6.751Zm23.9,50.442a2.035,2.035,0,0,0,2.221-.714,1.94,1.94,0,0,0,.316-1.985Zm-6.138-9.668-1.1-1.049-.773.682,1.08,1.131Z" transform="translate(-150.866 -482.73)" fill="#c7c7c7"/>
  <path id="Trazado_1678" data-name="Trazado 1678" d="M418.284,592.5a2.408,2.408,0,0,1,.3-.077c1.894-.134,1.894-.134,1.894,1.752,0,.8-.011,1.6,0,2.394.007.354-.116.484-.484.508-1.718.109-1.717.12-1.717-1.594Z" transform="translate(-380.526 -576.888)" fill="#c7c7c7"/>
  <path id="Trazado_1679" data-name="Trazado 1679" d="M337.893,596.968c-.139.088-.158.109-.178.111-2,.219-2,.219-2-1.771,0-.776.015-1.552,0-2.327-.01-.4.145-.516.534-.533,1.648-.071,1.647-.083,1.647,1.53Z" transform="translate(-309.611 -576.936)" fill="#c7c7c7"/>
  <path id="Trazado_1680" data-name="Trazado 1680" d="M337.8,659.405h-2.177c0-.545,0-1.074,0-1.6,0-.753.025-1.508-.016-2.259-.031-.562.116-.79.733-.777,1.46.031,1.46,0,1.46,1.451C337.8,657.252,337.8,658.286,337.8,659.405Z" transform="translate(-309.519 -630.476)" fill="#c7c7c7"/>
  <path id="Trazado_1681" data-name="Trazado 1681" d="M377.471,655.174h2.055v4.568h-2.055Z" transform="translate(-345.475 -630.826)" fill="#c7c7c7"/>
  <path id="Trazado_1682" data-name="Trazado 1682" d="M338.249,721.773h-2.126v-4.616c.591,0,1.171-.024,1.747.018a.534.534,0,0,1,.363.372C338.26,718.93,338.249,720.314,338.249,721.773Z" transform="translate(-309.965 -684.051)" fill="#c7c7c7"/>
  <path id="Trazado_1683" data-name="Trazado 1683" d="M379.495,597.61h-2.068v-4.562h2.068Z" transform="translate(-345.437 -577.472)" fill="#c7c7c7"/>
  <path id="Trazado_1684" data-name="Trazado 1684" d="M224.739,751.319v-4.092h2.093v4.092Z" transform="translate(-214.308 -709.881)" fill="#c7c7c7"/>
  <path id="Trazado_1685" data-name="Trazado 1685" d="M226.938,695.517h-2.082v-4.125h2.082Z" transform="translate(-214.409 -661.93)" fill="#c7c7c7"/>
  <path id="Trazado_1686" data-name="Trazado 1686" d="M269.287,691.386h2.068v4.12h-2.068Z" transform="translate(-252.566 -661.925)" fill="#c7c7c7"/>
  <path id="Trazado_1687" data-name="Trazado 1687" d="M271.406,751.3h-2.034v-4.116h2.034Z" transform="translate(-252.639 -709.842)" fill="#c7c7c7"/>
  <path id="Trazado_1688" data-name="Trazado 1688" d="M420.5,721.535h-2.2c0-1.439,0-2.842,0-4.244,0-.023-.006-.054.006-.069.487-.629,1.161-.171,1.74-.274.121-.022.428.276.432.431C420.519,718.737,420.5,720.1,420.5,721.535Z" transform="translate(-380.544 -683.821)" fill="#c7c7c7"/>
</svg>
