<svg xmlns="http://www.w3.org/2000/svg" width="80.669" height="80.666" viewBox="0 0 80.669 80.666"><g transform="translate(0 -0.011)"><g transform="translate(0 0.011)"><g transform="translate(0 0)"><path d="M284.57,405.323h-26.89a1.681,1.681,0,0,0,0,3.361h26.89a1.681,1.681,0,1,0,0-3.361Z" transform="translate(-215.665 -341.463)" fill="#af4ee2"/><path d="M284.57,447.989h-26.89a1.681,1.681,0,1,0,0,3.361h26.89a1.681,1.681,0,1,0,0-3.361Z" transform="translate(-215.665 -377.407)" fill="#af4ee2"/><path d="M47.709,405.323a5.042,5.042,0,1,0,5.042,5.042A5.048,5.048,0,0,0,47.709,405.323Zm0,6.722a1.681,1.681,0,1,1,1.681-1.681A1.681,1.681,0,0,1,47.709,412.045Z" transform="translate(-35.945 -341.463)" fill="#af4ee2"/><path d="M47.709,277.323a5.042,5.042,0,1,0,5.042,5.042A5.048,5.048,0,0,0,47.709,277.323Zm0,6.722a1.681,1.681,0,1,1,1.681-1.681A1.681,1.681,0,0,1,47.709,284.045Z" transform="translate(-35.945 -233.631)" fill="#af4ee2"/><path d="M284.57,191.989h-26.89a1.681,1.681,0,0,0,0,3.361h26.89a1.681,1.681,0,1,0,0-3.361Z" transform="translate(-215.665 -161.742)" fill="#af4ee2"/><path d="M80.669,31.939V25.217A8.33,8.33,0,0,0,79.4,20.824c-.023-.047-.027-.1-.054-.144L68.949,3.974A8.354,8.354,0,0,0,61.813.011H18.867a8.35,8.35,0,0,0-7.136,3.963L1.338,20.679c-.017.027-.017.057-.034.087A8.336,8.336,0,0,0,0,25.217v6.722a8.372,8.372,0,0,0,3.415,6.722A8.377,8.377,0,0,0,0,45.384v6.722a8.372,8.372,0,0,0,3.415,6.722A8.377,8.377,0,0,0,0,65.551v6.722a8.415,8.415,0,0,0,8.4,8.4H72.266a8.415,8.415,0,0,0,8.4-8.4V65.551a8.372,8.372,0,0,0-3.415-6.722,8.371,8.371,0,0,0,3.415-6.722V45.384a8.372,8.372,0,0,0-3.415-6.722A8.367,8.367,0,0,0,80.669,31.939ZM14.584,5.749a5.007,5.007,0,0,1,4.279-2.38H61.809a5.006,5.006,0,0,1,4.279,2.38l6.934,11.142c-.252-.023-.5-.077-.756-.077H8.4c-.259,0-.5.054-.753.077Zm62.724,59.8v6.722a5.048,5.048,0,0,1-5.042,5.042H8.4a5.048,5.048,0,0,1-5.042-5.042V65.551A5.048,5.048,0,0,1,8.4,60.509H72.266A5.048,5.048,0,0,1,77.308,65.551Zm0-20.167v6.722a5.048,5.048,0,0,1-5.042,5.042H8.4a5.048,5.048,0,0,1-5.042-5.042V45.384A5.048,5.048,0,0,1,8.4,40.342H72.266A5.048,5.048,0,0,1,77.308,45.384Zm0-13.445a5.048,5.048,0,0,1-5.042,5.042H8.4a5.048,5.048,0,0,1-5.042-5.042V25.217A5.048,5.048,0,0,1,8.4,20.175H72.266a5.048,5.048,0,0,1,5.042,5.042v6.722Z" transform="translate(0 -0.011)" fill="#af4ee2"/><path d="M284.57,149.323h-26.89a1.681,1.681,0,0,0,0,3.361h26.89a1.681,1.681,0,1,0,0-3.361Z" transform="translate(-215.665 -125.798)" fill="#af4ee2"/><path d="M284.57,319.989h-26.89a1.681,1.681,0,0,0,0,3.361h26.89a1.681,1.681,0,1,0,0-3.361Z" transform="translate(-215.665 -269.574)" fill="#af4ee2"/><path d="M284.57,277.323h-26.89a1.681,1.681,0,0,0,0,3.361h26.89a1.681,1.681,0,1,0,0-3.361Z" transform="translate(-215.665 -233.631)" fill="#af4ee2"/><path d="M47.709,149.323a5.042,5.042,0,1,0,5.042,5.042A5.048,5.048,0,0,0,47.709,149.323Zm0,6.722a1.681,1.681,0,1,1,1.681-1.681A1.681,1.681,0,0,1,47.709,156.045Z" transform="translate(-35.945 -125.798)" fill="#af4ee2"/></g></g></g></svg>