<svg xmlns="http://www.w3.org/2000/svg" width="85.226" height="85.228" viewBox="0 0 85.226 85.228"><g transform="translate(-2 -2)"><path d="M83.022,21.92A9.943,9.943,0,0,0,63.249,20.5H12V83H73.377a9.659,9.659,0,0,0,9.645-9.65Zm-17.045,0a7.1,7.1,0,1,1,14.2,0V66.1a9.93,9.93,0,0,0-14.2,0Zm7.4,58.238H14.841V23.341H63.136V73.056a1.42,1.42,0,0,0,2.841,0,7.1,7.1,0,1,1,14.2,0v.3A6.818,6.818,0,0,1,73.377,80.158Z" transform="translate(4.204 4.227)" fill="#af4ee2"/><path d="M2,2V21.886H64.5V2ZM61.658,19.045H4.841V4.841H9.1v5.682h2.841V4.841h2.841V7.682h2.841V4.841h2.841v5.682h2.841V4.841h2.841V7.682h2.841V4.841h2.841v5.682H34.67V4.841h2.841V7.682h2.841V4.841h2.841v5.682h2.841V4.841h2.841V7.682h2.841V4.841h2.841v5.682H57.4V4.841h4.261Z" transform="translate(0 0)" fill="#af4ee2"/><path d="M7.682,18A5.682,5.682,0,0,0,2,23.682V70.556a1.42,1.42,0,0,0,.142.635L6.4,79.714a1.42,1.42,0,0,0,2.543,0l4.261-8.523a1.42,1.42,0,0,0,.156-.635V23.682A5.682,5.682,0,0,0,7.682,18ZM9.1,66.955V35.045h1.42V67.9ZM10.523,32.2H4.841V29.364h5.682ZM4.841,35.045h1.42v31.91l-1.42.947Zm0-11.364a2.841,2.841,0,0,1,5.682,0v2.841H4.841ZM7.682,75.9l-2.43-4.861,2.43-1.622,2.43,1.619Z" transform="translate(0 6.727)" fill="#af4ee2"/><path d="M35.045,26V40.2H26.523v2.841h8.523V54.409H46.409V51.568H37.886V28.841h14.2v34.09H29.25a9.943,9.943,0,0,0-8.409-8.409V28.841h5.682V26H18V65.772H54.931V26Zm-14.2,36.931v-5.54a7.125,7.125,0,0,1,5.54,5.54Z" transform="translate(6.727 10.09)" fill="#af4ee2"/></g></svg>