<svg id="move" xmlns="http://www.w3.org/2000/svg" width="36.56" height="36.559" viewBox="0 0 36.56 36.559">
  <g id="Grupo_83" data-name="Grupo 83" transform="translate(0 0)">
    <path id="Trazado_1622" data-name="Trazado 1622" d="M36.336,17.741,31,12.409a.762.762,0,0,0-1.3.538v2.285a.761.761,0,0,0,.223.539l.985.985H19.8V5.647l.985.985a.761.761,0,0,0,.539.223h2.285a.762.762,0,0,0,.538-1.3L18.818.223a.761.761,0,0,0-1.077,0L12.409,5.555a.762.762,0,0,0,.538,1.3h2.285a.761.761,0,0,0,.539-.223l.985-.985V16.756H5.647l.985-.985a.761.761,0,0,0,.223-.539V12.948a.762.762,0,0,0-1.3-.538L.223,17.741a.761.761,0,0,0,0,1.077L5.555,24.15a.761.761,0,0,0,.539.223.751.751,0,0,0,.292-.058.762.762,0,0,0,.47-.7V21.326a.761.761,0,0,0-.223-.539L5.647,19.8H16.756V30.912l-.985-.985a.761.761,0,0,0-.539-.223H12.948a.762.762,0,0,0-.538,1.3l5.332,5.332a.761.761,0,0,0,1.077,0L24.15,31a.762.762,0,0,0-.538-1.3H21.326a.761.761,0,0,0-.539.223l-.985.985V19.8H30.912l-.985.985a.761.761,0,0,0-.223.539v2.285a.762.762,0,0,0,.47.7.753.753,0,0,0,.292.058A.761.761,0,0,0,31,24.15l5.332-5.332A.761.761,0,0,0,36.336,17.741Z" transform="translate(0 0)" fill="#fff"/>
  </g>
</svg>
