<svg xmlns="http://www.w3.org/2000/svg" width="277.536" height="257.707" viewBox="0 0 277.536 257.707">
  <path id="linkedin-color" d="M108.128,11976.293h54.84v28.113h.793c7.638-13.7,26.312-28.109,54.158-28.109,57.908,0,68.618,36.035,68.618,82.914v95.5H229.345v-84.652c0-20.18-.42-46.156-29.738-46.156-29.778,0-34.341,21.965-34.341,44.688v86.121H108.128v-178.414Zm-39.648-49.559A29.74,29.74,0,1,1,38.742,11897,29.743,29.743,0,0,1,68.48,11926.734ZM9,11976.293H68.48v178.414H9Z" transform="translate(-9 -11897)" fill="#0077b5" fill-rule="evenodd"/>
</svg>
